<svg xmlns="http://www.w3.org/2000/svg" viewBox="0 0 405.96 161.79"><defs><style>.cls-1{fill:#199f53;}.cls-2{fill:#0687b7;}.cls-3{fill:#fff;}</style></defs><g id="Camada_2" data-name="Camada 2"><g id="Camada_1-2" data-name="Camada 1"><path class="cls-1" d="M51,161.11c2.57-1.08,6.11-2.54,10.34-4.22C65.46,155.27,76.26,151,92,145.66c4.84-1.66,16-5.47,27.25-8.81,12.41-3.67,25.66-7,52.62-12.08,30.66-5.83,46-8.75,64.94-10.9a611.8,611.8,0,0,1,78.8-3.57c30.52.55,48.72,3.14,55.77,4.3l1.77.29A288.57,288.57,0,0,1,406,122.38q-.09,19.71-.17,39.41Z"/><path class="cls-2" d="M0,160.34V0L405.7,1.28l.09,117a587.37,587.37,0,0,0-87.66-15.62,600.42,600.42,0,0,0-123.4.52c-53.24,5.66-92.11,16.9-101.36,19.64A533.86,533.86,0,0,0,0,160.34Z"/><path class="cls-3" d="M9.21,57.15V33.5a10.3,10.3,0,0,1,3-7.39A9,9,0,0,1,18.85,23H53.92V34.15H20.71v22.4H53.92V67.7H18.85a9,9,0,0,1-6.66-3.13A10.39,10.39,0,0,1,9.21,57.15Z"/><path class="cls-3" d="M62.78,57.15V33.5A11,11,0,0,1,65.41,26a9.06,9.06,0,0,1,7.15-3h25.8a9.21,9.21,0,0,1,6.75,3.12,10.23,10.23,0,0,1,3,7.39V57.15a10.31,10.31,0,0,1-3,7.42,9.19,9.19,0,0,1-6.75,3.13H72.56a9,9,0,0,1-7.15-3A11.08,11.08,0,0,1,62.78,57.15Zm11.5-.6H96.64V34.15H74.28Z"/><path class="cls-3" d="M116,57.15V8.2h11.16V23h15.56V34.15H127.17v22.4h15.56V67.7H125.65A9.06,9.06,0,0,1,119,64.57,10.37,10.37,0,0,1,116,57.15Z"/><path class="cls-3" d="M150.56,67.7V23h35.07A10.45,10.45,0,0,1,196.09,33.5v8.86H184.8V34.15H161.71V67.7Z"/><path class="cls-3" d="M204.31,18.54V10.76h11.5v7.78Zm0,49.16V23h11.5V67.7Z"/><path class="cls-3" d="M222.38,85V23.08h35.07a10,10,0,0,1,7.39,3.09,10.19,10.19,0,0,1,3.07,7.46V57.24a10.19,10.19,0,0,1-3.07,7.46,10,10,0,0,1-7.39,3.09H239.11V56.63h17.52V34.32H233.54V85Z"/><path class="cls-3" d="M276.86,57.18v-8.1a9.25,9.25,0,0,1,3-6.68,9.23,9.23,0,0,1,6.61-3h18.34V50.54H288.36v6h22.36V34.15H276.86V23h35.58a9.21,9.21,0,0,1,6.75,3.12,10.23,10.23,0,0,1,3,7.39V67.7H286.64a9.23,9.23,0,0,1-6.75-3.12A10.28,10.28,0,0,1,276.86,57.18Z"/><path class="cls-3" d="M330.87,67.7V23h29.57a7.72,7.72,0,0,1,4.09,1.21A12.14,12.14,0,0,1,369.46,23h18.92a10.37,10.37,0,0,1,7.52,3.07A10.05,10.05,0,0,1,399,33.5V67.7h-11.5V34.15h-16.6V67.7h-12V34.15H342.37V67.7Z"/></g></g></svg>