<svg xmlns="http://www.w3.org/2000/svg" viewBox="0 0 405.96 161.79"><defs><style>.cls-1{fill:#199f53;}.cls-2{fill:#0687b7;}</style></defs><g id="Camada_2" data-name="Camada 2"><g id="Camada_1-2" data-name="Camada 1"><path class="cls-1" d="M51,161.11c2.57-1.08,6.11-2.54,10.34-4.22C65.46,155.27,76.26,151,92,145.66c4.84-1.66,16-5.47,27.25-8.81,12.41-3.67,25.66-7,52.62-12.08,30.66-5.83,46-8.75,64.94-10.9a611.8,611.8,0,0,1,78.8-3.57c30.52.55,48.72,3.14,55.77,4.3l1.77.29A288.57,288.57,0,0,1,406,122.38q-.09,19.71-.17,39.41Z"/><rect class="cls-2" x="74.28" y="34.15" width="22.35" height="22.4"/><path class="cls-2" d="M405.7,1.28,0,0V160.34A533.86,533.86,0,0,1,93.37,122.8c9.25-2.74,48.12-14,101.36-19.64a600.42,600.42,0,0,1,123.4-.52,587.37,587.37,0,0,1,87.66,15.62ZM53.92,34.15H20.71v22.4H53.92V67.7H18.85a9,9,0,0,1-6.66-3.13,10.39,10.39,0,0,1-3-7.42V33.5a10.3,10.3,0,0,1,3-7.39A9,9,0,0,1,18.85,23H53.92Zm54.22,23a10.31,10.31,0,0,1-3,7.42,9.19,9.19,0,0,1-6.75,3.13H72.56a9,9,0,0,1-7.15-3,11.08,11.08,0,0,1-2.63-7.55V33.5A11,11,0,0,1,65.41,26a9.06,9.06,0,0,1,7.15-3h25.8a9.21,9.21,0,0,1,6.75,3.12,10.23,10.23,0,0,1,3,7.39Zm34.59-23H127.17v22.4h15.56V67.7H125.65A9.06,9.06,0,0,1,119,64.57a10.37,10.37,0,0,1-3-7.42V8.2h11.16V23h15.56Zm53.36,8.21H184.8V34.15H161.71V67.7H150.56V23h35.07A10.45,10.45,0,0,1,196.09,33.5ZM215.81,67.7h-11.5V23h11.5Zm0-49.16h-11.5V10.76h11.5Zm52.1,38.7a10.19,10.19,0,0,1-3.07,7.46,10,10,0,0,1-7.39,3.09H239.11V56.63h17.52V34.32H233.54V85H222.38V23.08h35.07a10,10,0,0,1,7.39,3.09,10.19,10.19,0,0,1,3.07,7.46ZM322.22,67.7H286.64a9.23,9.23,0,0,1-6.75-3.12,10.28,10.28,0,0,1-3-7.4v-8.1a9.25,9.25,0,0,1,3-6.68,9.23,9.23,0,0,1,6.61-3h18.34V50.54H288.36v6h22.36V34.15H276.86V23h35.58a9.21,9.21,0,0,1,6.75,3.12,10.23,10.23,0,0,1,3,7.39Zm76.79,0h-11.5V34.15h-16.6V67.7h-12V34.15H342.37V67.7h-11.5V23h29.57a7.72,7.72,0,0,1,4.09,1.21A12.14,12.14,0,0,1,369.46,23h18.92a10.37,10.37,0,0,1,7.52,3.07A10.05,10.05,0,0,1,399,33.5Z"/></g></g></svg>